# xmcd
#
# Track frame offsets:
# 150
# 16380
# 29647
# 48350
# 66652
# 80925
# 98942
# 115752
# 129385
# 142277
# 156402
# 173730
# 192387
#
# Disc length: 2759 seconds
#
#
# Revision: 0
# Processed by: cddbd v1.5.2PL0 Copyright (c) Steve Scherf et al.
# Submitted via: FreeRIP 2.945 
#
DISCID=c50ac50d
DTITLE=Os Filhos do Rio Grande - Marca Registrada
DYEAR=1900
DGENRE=
TTITLE0=Mandando Bota
TTITLE1=Balaio de Gato
TTITLE2=Cheiro do Rio Grande
TTITLE3=Gaitita Baguala
TTITLE4=A Cara do Pai
TTITLE5=Vem Morar Comigo
TTITLE6=Ilusões da Vida
TTITLE7=Marca Registrada
TTITLE8=Chegando e Saíndo
TTITLE9=Bugio Cheira Cola
TTITLE10=Sonhando com Ela
TTITLE11=Não Deixe a Gaita Parar
TTITLE12=Volteada
EXTD=
EXTT0=
EXTT1=
EXTT2=
EXTT3=
EXTT4=
EXTT5=
EXTT6=
EXTT7=
EXTT8=
EXTT9=
EXTT10=
EXTT11=
EXTT12=
PLAYORDER=
